<svg width="21" height="23" viewBox="0 0 21 23" fill="none" xmlns="http://www.w3.org/2000/svg">
<path d="M5.78686 9.72278H3.27982C3.06692 9.72278 2.89459 9.8951 2.89459 10.108V12.615C2.89459 12.8277 3.06692 13.0003 3.27982 13.0003H5.78686C5.99976 13.0003 6.17209 12.8277 6.17209 12.615V10.108C6.17209 9.89536 5.99976 9.72278 5.78686 9.72278ZM5.40164 12.2298H3.66504V10.4932H5.40164V12.2298Z" fill="black"/>
<path d="M11.634 9.72278H9.12699C8.91408 9.72278 8.74176 9.8951 8.74176 10.108V12.615C8.74176 12.8277 8.91408 13.0003 9.12699 13.0003H11.634C11.8467 13.0003 12.0193 12.8277 12.0193 12.615V10.108C12.0193 9.89536 11.8467 9.72278 11.634 9.72278ZM11.2488 12.2298H9.51221V10.4932H11.2488V12.2298Z" fill="black"/>
<path d="M17.301 9.72278H14.7939C14.5813 9.72278 14.4087 9.8951 14.4087 10.108V12.615C14.4087 12.8277 14.5813 13.0003 14.7939 13.0003H17.301C17.5136 13.0003 17.6862 12.8277 17.6862 12.615V10.108C17.6862 9.89536 17.5136 9.72278 17.301 9.72278ZM16.9157 12.2298H15.1791V10.4932H16.9157V12.2298Z" fill="black"/>
<path d="M5.78686 15.4333H3.27982C3.06692 15.4333 2.89459 15.6059 2.89459 15.8186V18.3256C2.89459 18.5383 3.06692 18.7108 3.27982 18.7108H5.78686C5.99976 18.7108 6.17209 18.5383 6.17209 18.3256V15.8186C6.17209 15.6059 5.99976 15.4333 5.78686 15.4333ZM5.40164 17.9404H3.66504V16.2038H5.40164V17.9404Z" fill="black"/>
<path d="M11.634 15.4333H9.12699C8.91408 15.4333 8.74176 15.6059 8.74176 15.8186V18.3256C8.74176 18.5383 8.91408 18.7108 9.12699 18.7108H11.634C11.8467 18.7108 12.0193 18.5383 12.0193 18.3256V15.8186C12.0193 15.6059 11.8467 15.4333 11.634 15.4333ZM11.2488 17.9404H9.51221V16.2038H11.2488V17.9404Z" fill="black"/>
<path d="M17.301 15.4333H14.7939C14.5813 15.4333 14.4087 15.6059 14.4087 15.8186V18.3256C14.4087 18.5383 14.5813 18.7108 14.7939 18.7108H17.301C17.5136 18.7108 17.6862 18.5383 17.6862 18.3256V15.8186C17.6862 15.6059 17.5136 15.4333 17.301 15.4333ZM16.9157 17.9404H15.1791V16.2038H16.9157V17.9404Z" fill="black"/>
<path d="M20.352 2.26299H17.8077C17.8043 2.26299 17.8015 2.26376 17.7982 2.26402V1.7509C17.7982 0.911623 17.1156 0.229004 16.2763 0.229004C15.437 0.229004 14.7544 0.91188 14.7544 1.7509V2.26299H11.8875V1.7509C11.8875 0.911623 11.2049 0.229004 10.3656 0.229004C9.52636 0.229004 8.84374 0.91188 8.84374 1.7509V2.26299H5.97664V1.7509C5.97664 0.911623 5.29402 0.229004 4.45474 0.229004C3.61547 0.229004 2.93285 0.91188 2.93285 1.7509V2.26325C2.93156 2.26325 2.93028 2.26299 2.929 2.26299H0.385225C0.172324 2.26299 0 2.43532 0 2.64822V22.6147C0 22.8273 0.172324 22.9999 0.385225 22.9999H20.352C20.5646 22.9999 20.7372 22.8273 20.7372 22.6147V2.64822C20.7372 2.43532 20.5646 2.26299 20.352 2.26299ZM15.5248 1.7509C15.5248 1.3364 15.8618 0.999454 16.2763 0.999454C16.6908 0.999454 17.0277 1.3364 17.0277 1.7509V3.87657C17.0277 4.29082 16.6908 4.62802 16.2763 4.62802C15.8618 4.62802 15.5248 4.29108 15.5248 3.87657V1.7509ZM10.3656 0.999454C10.7799 0.999454 11.1171 1.3364 11.1171 1.7509V3.87657C11.1171 4.29082 10.7801 4.62802 10.3656 4.62802C9.95114 4.62802 9.61419 4.29108 9.61419 3.87657V2.68417C9.61522 2.6721 9.61779 2.66055 9.61779 2.64796C9.61779 2.63538 9.61522 2.62382 9.61419 2.61175V1.7509C9.61419 1.3364 9.95114 0.999454 10.3656 0.999454ZM3.7033 1.7509C3.7033 1.3364 4.04024 0.999454 4.45474 0.999454C4.86899 0.999454 5.20619 1.3364 5.20619 1.7509V3.87657C5.20619 4.29082 4.86925 4.62802 4.45474 4.62802C4.04024 4.62802 3.7033 4.29108 3.7033 3.87657V1.7509ZM19.9667 22.2295H0.77045V3.03344H2.929C2.93028 3.03344 2.93156 3.03319 2.93285 3.03319V3.87683C2.93285 4.71611 3.61572 5.39873 4.45474 5.39873C5.29377 5.39873 5.97664 4.71611 5.97664 3.87683V3.0337H8.84374V3.87683C8.84374 4.71611 9.52662 5.39873 10.3656 5.39873C11.2047 5.39873 11.8875 4.71611 11.8875 3.87683V3.0337H14.7544V3.87683C14.7544 4.71611 15.437 5.39873 16.2763 5.39873C17.1156 5.39873 17.7982 4.71611 17.7982 3.87683V3.03242C17.8015 3.03242 17.8043 3.03344 17.8077 3.03344H19.9667V22.2295Z" fill="black"/>
</svg>
