<svg width="27" height="27" viewBox="0 0 27 27" fill="none" xmlns="http://www.w3.org/2000/svg">
<path d="M13.5002 3.09387C5.6961 3.09387 3.09398 5.696 3.09398 13.5001C3.09398 21.3042 5.6961 23.9064 13.5002 23.9064C21.3043 23.9064 23.9065 21.3042 23.9065 13.5001" stroke="white" stroke-width="1.5" stroke-linecap="round" stroke-linejoin="round"/>
<path fill-rule="evenodd" clip-rule="evenodd" d="M21.9696 4.84184V4.84184C20.8524 3.85296 19.1458 3.95646 18.1569 5.07359C18.1569 5.07359 13.2418 10.6255 11.5374 12.5526C9.83081 14.4786 11.0818 17.1392 11.0818 17.1392C11.0818 17.1392 13.8988 18.0313 15.5796 16.1323C17.2614 14.2333 22.2013 8.65446 22.2013 8.65446C23.1902 7.53734 23.0856 5.83071 21.9696 4.84184Z" stroke="white" stroke-width="1.5" stroke-linecap="round" stroke-linejoin="round"/>
<path d="M16.8851 6.52588L20.9295 10.1068" stroke="white" stroke-width="1.5" stroke-linecap="round" stroke-linejoin="round"/>
</svg>
