<svg width="18" height="18" viewBox="0 0 18 18" fill="none" xmlns="http://www.w3.org/2000/svg">
<path d="M9.00046 2V6.14796" stroke="black" stroke-width="3" stroke-linecap="round"/>
<path d="M9.00046 11.852V15.9999" stroke="black" stroke-width="3" stroke-linecap="round"/>
<path d="M2 9.00046H6.14796" stroke="black" stroke-width="3" stroke-linecap="round"/>
<path d="M11.852 9.00046H15.9999" stroke="black" stroke-width="3" stroke-linecap="round"/>
<path d="M9.00044 14.8726C12.2436 14.8726 14.8726 12.2436 14.8726 9.00044C14.8726 5.75733 12.2436 3.12827 9.00044 3.12827C5.75733 3.12827 3.12827 5.75733 3.12827 9.00044C3.12827 12.2436 5.75733 14.8726 9.00044 14.8726Z" fill="white"/>
<path d="M9.00054 13.7717C11.6356 13.7717 13.7717 11.6356 13.7717 9.00054C13.7717 6.36551 11.6356 4.2294 9.00054 4.2294C6.36551 4.2294 4.2294 6.36551 4.2294 9.00054C4.2294 11.6356 6.36551 13.7717 9.00054 13.7717Z" stroke="black" stroke-width="3"/>
<path d="M9.00044 11.2025C10.2166 11.2025 11.2025 10.2166 11.2025 9.00044C11.2025 7.78427 10.2166 6.79837 9.00044 6.79837C7.78427 6.79837 6.79837 7.78427 6.79837 9.00044C6.79837 10.2166 7.78427 11.2025 9.00044 11.2025Z" fill="#1FCD6C"/>
</svg>
