<svg width="80" height="46" viewBox="0 0 80 46" fill="none" xmlns="http://www.w3.org/2000/svg">
<path fill-rule="evenodd" clip-rule="evenodd" d="M60.9 26.8535C68.8876 26.8535 72.8196 33.9558 70.9447 41.3771H76.4196C78.7696 40.329 79.7461 38.1677 80 35.414V30.8831C80 27.1855 80 23.4879 80 19.4778C80 16.3921 78.034 14.8493 74.076 14.8493H71.2442L65.5481 2.98176C64.7604 1.0939 63.3282 0.149963 61.3036 0.149963H50.2824V0.215062H5.27952C1.92042 0.247612 0.0976486 1.84904 0 5.21466V41.3771H4.5439C1.80975 34.3073 6.88095 26.8796 14.3868 26.8796C21.9058 26.8796 26.9835 34.3008 24.2428 41.3771H50.4516C49.0585 34.3855 53.1142 26.8535 60.9 26.8535ZM53.1402 37.7381C53.1402 39.997 53.8888 41.9304 55.4122 43.5253C56.9225 45.1203 58.7582 45.9275 60.9 45.9275C63.0613 45.9275 64.8971 45.1203 66.4074 43.5253C67.9177 41.9304 68.6793 39.997 68.6793 37.7381C68.6793 35.4791 67.9177 33.5457 66.4074 31.9508C64.8971 30.3428 63.0613 29.5486 60.9 29.5486C58.7582 29.5486 56.9225 30.3363 55.4122 31.9508C53.8888 33.5457 53.1402 35.4856 53.1402 37.7381ZM6.69216 37.7381C6.69216 39.997 7.4408 41.9304 8.96411 43.5253C10.4744 45.1203 12.3102 45.9275 14.452 45.9275C16.6132 45.9275 18.449 45.1203 19.9593 43.5253C21.4696 41.9304 22.2313 39.997 22.2313 37.7381C22.2313 35.4791 21.4696 33.5457 19.9593 31.9508C18.449 30.3428 16.6132 29.5486 14.452 29.5486C12.3102 29.5486 10.4744 30.3363 8.96411 31.9508C7.4408 33.5457 6.69216 35.4856 6.69216 37.7381ZM14.465 35.1341C13.0263 35.1341 11.861 36.2994 11.861 37.7381C11.861 39.1767 13.0263 40.342 14.465 40.342C15.9037 40.342 17.0689 39.1767 17.0689 37.7381C17.0689 36.2994 15.9037 35.1341 14.465 35.1341ZM60.913 35.1341C59.4743 35.1341 58.3091 36.2994 58.3091 37.7381C58.3091 39.1767 59.4743 40.342 60.913 40.342C62.3517 40.342 63.517 39.1767 63.517 37.7381C63.517 36.2994 62.3517 35.1341 60.913 35.1341ZM45.7971 5.39042H35.9801V18.4558H45.7971V5.39042ZM55.5098 21.0858H51.4672V22.1924H55.5098V21.0858ZM51.4672 18.4558V5.39042H61.2776L66.4659 18.4558H51.4672ZM15.155 5.39042H5.3381V18.4558H15.155V5.39042ZM30.1668 5.39042H20.3499V18.4558H30.1668V5.39042Z" fill="white"/>
</svg>
