<svg width="41" height="24" viewBox="0 0 41 24" fill="none" xmlns="http://www.w3.org/2000/svg">
<path fill-rule="evenodd" clip-rule="evenodd" d="M31.0306 14.3542C35.07 14.3542 37.0584 17.9459 36.1103 21.6988H38.8789C40.0674 21.1688 40.5612 20.0758 40.6896 18.6833V16.392C40.6896 14.5221 40.6896 12.6522 40.6896 10.6242C40.6896 9.0638 39.6954 8.28357 37.6938 8.28357H36.2617L33.3811 2.28209C32.9828 1.32739 32.2585 0.850037 31.2347 0.850037H25.6612V0.882958H2.90299C1.20427 0.899418 0.282486 1.70927 0.233105 3.41128V21.6988H2.53098C1.1483 18.1236 3.71284 14.3674 7.50862 14.3674C11.311 14.3674 13.8788 18.1203 12.4928 21.6988H25.7468C25.0423 18.1631 27.0933 14.3542 31.0306 14.3542ZM27.1064 19.8586C27.1064 21.0009 27.485 21.9787 28.2554 22.7852C29.0191 23.5918 29.9475 24 31.0306 24C32.1236 24 33.0519 23.5918 33.8157 22.7852C34.5795 21.9787 34.9646 21.0009 34.9646 19.8586C34.9646 18.7162 34.5795 17.7384 33.8157 16.9319C33.0519 16.1187 32.1236 15.7171 31.0306 15.7171C29.9475 15.7171 29.0191 16.1154 28.2554 16.9319C27.485 17.7384 27.1064 18.7195 27.1064 19.8586ZM3.61737 19.8586C3.61737 21.0009 3.99596 21.9787 4.76631 22.7852C5.53007 23.5918 6.45844 24 7.54154 24C8.63451 24 9.56288 23.5918 10.3266 22.7852C11.0904 21.9787 11.4756 21.0009 11.4756 19.8586C11.4756 18.7162 11.0904 17.7384 10.3266 16.9319C9.56288 16.1187 8.63451 15.7171 7.54154 15.7171C6.45844 15.7171 5.53007 16.1154 4.76631 16.9319C3.99596 17.7384 3.61737 18.7195 3.61737 19.8586ZM7.54812 18.5417C6.82057 18.5417 6.23129 19.131 6.23129 19.8586C6.23129 20.5861 6.82057 21.1754 7.54812 21.1754C8.27568 21.1754 8.86496 20.5861 8.86496 19.8586C8.86496 19.131 8.27568 18.5417 7.54812 18.5417ZM31.0372 18.5417C30.3096 18.5417 29.7203 19.131 29.7203 19.8586C29.7203 20.5861 30.3096 21.1754 31.0372 21.1754C31.7647 21.1754 32.354 20.5861 32.354 19.8586C32.354 19.131 31.7647 18.5417 31.0372 18.5417ZM23.3929 3.50017H18.4285V10.1074H23.3929V3.50017ZM28.3047 11.4374H26.2604V11.997H28.3047V11.4374ZM26.2604 10.1074V3.50017H31.2215L33.8453 10.1074H26.2604ZM7.89708 3.50017H2.93261V10.1074H7.89708V3.50017ZM15.4886 3.50017H10.5242V10.1074H15.4886V3.50017Z" fill="black"/>
</svg>
